<?xml version="1.0" encoding="iso-8859-1"?>
<!-- Generator: Adobe Illustrator 19.0.0, SVG Export Plug-In . SVG Version: 6.00 Build 0)  -->
<svg version="1.1" id="Layer_1" xmlns="http://www.w3.org/2000/svg" xmlns:xlink="http://www.w3.org/1999/xlink" x="0px" y="0px"
	 viewBox="0 0 297 297" style="enable-background:new 0 0 297 297;" xml:space="preserve">
<g>
	<g>
		<g>
			<path d="M230.038,32.616h-30.886v-2.925C199.152,13.32,185.832,0,169.46,0h-41.923c-16.372,0-29.691,13.32-29.691,29.691v2.925
				H66.96c-24.524,0-44.476,19.951-44.476,44.476v14.331c0,5.458,4.425,9.884,9.884,9.884h9.19l13.556,162.672
				C56.657,282.495,72.422,297,91.003,297h114.993c18.581,0,34.345-14.505,35.89-33.023l13.556-162.671h9.19
				c5.458,0,9.884-4.425,9.884-9.884v-14.33C274.514,52.567,254.563,32.616,230.038,32.616z M117.613,29.691
				c0-5.473,4.451-9.924,9.924-9.924h41.923c5.473,0,9.925,4.451,9.925,9.924v2.925h-61.772V29.691z M222.185,262.335
				c-0.696,8.354-7.807,14.898-16.19,14.898H91.003c-8.383,0-15.494-6.544-16.19-14.897l-13.419-161.03h174.211L222.185,262.335z
				 M254.747,81.54H42.251v-4.448c0-13.625,11.084-24.709,24.709-24.709h163.078c13.625,0,24.709,11.084,24.709,24.709V81.54z"/>
			<path d="M148.499,265.126c5.458,0,9.884-4.425,9.884-9.884V124.78c0-5.458-4.425-9.884-9.884-9.884s-9.884,4.425-9.884,9.884
				v130.463C138.615,260.7,143.041,265.126,148.499,265.126z"/>
			<path d="M98.111,255.84c0.318,5.246,4.671,9.286,9.856,9.286c0.202,0,0.404-0.006,0.607-0.018
				c5.448-0.33,9.598-5.014,9.268-10.463l-7.907-130.463c-0.33-5.45-5.053-9.609-10.463-9.268c-5.448,0.33-9.598,5.014-9.268,10.463
				L98.111,255.84z"/>
			<path d="M188.424,265.107c0.204,0.013,0.405,0.018,0.607,0.018c5.184,0,9.538-4.041,9.856-9.286l7.907-130.463
				c0.33-5.448-3.819-10.133-9.268-10.463c-5.444-0.328-10.133,3.819-10.463,9.268l-7.907,130.463
				C178.826,260.093,182.976,264.777,188.424,265.107z"/>
		</g>
	</g>
</g>
<g>
</g>
<g>
</g>
<g>
</g>
<g>
</g>
<g>
</g>
<g>
</g>
<g>
</g>
<g>
</g>
<g>
</g>
<g>
</g>
<g>
</g>
<g>
</g>
<g>
</g>
<g>
</g>
<g>
</g>
</svg>
